<svg width="1602" height="1202" xmlns="http://www.w3.org/2000/svg">
 <!-- Created with Method Draw - http://github.com/duopixel/Method-Draw/ -->

 <g>
  <title>background</title>
 </g>
 <g>
  <title>Layer 1</title>
  <g id="svg_18">
   <path id="svg_4" fill="#326DCD" d="m497.25205,727.078101l35.949117,35.867425c-16.850347,10.796609 -35.340229,18.789101 -54.750567,23.664959c-6.029041,1.429606 -10.734865,6.13923 -12.160671,12.16922l-8.097932,36.309131c-0.838765,3.717924 -4.132082,6.366257 -7.943097,6.387155l-36.031759,0c-3.820514,-0.009499 -7.12713,-2.659731 -7.966845,-6.387155l-8.050436,-36.195142c-1.248174,-5.906503 -5.717472,-10.606628 -11.553682,-12.152122c-18.132718,-4.517743 -35.489364,-11.712316 -51.499996,-21.348143c-5.155129,-3.013096 -11.570781,-2.857311 -16.573925,0.401809l-31.281479,19.996429c-3.240693,2.070791 -7.485624,1.607238 -10.203299,-1.113287l-25.499983,-25.500173c-2.748832,-2.714826 -3.226634,-6.980845 -1.146439,-10.236166l19.956153,-31.313586c3.259026,-5.004094 3.414335,-11.418796 0.401239,-16.574875c-9.635351,-16.009682 -16.830494,-33.367278 -21.348238,-51.499046c-1.548913,-5.812463 -6.228616,-10.264663 -12.111276,-11.521386l-36.211006,-8.082733c-3.720755,-0.825467 -6.369201,-4.123533 -6.370911,-7.934548l0,-36.031759c0.000855,-3.808165 2.645226,-7.106232 6.362723,-7.934548l36.219194,-8.082733c5.906978,-1.248174 10.607198,-5.717472 12.152217,-11.553682c4.517743,-18.132718 11.712886,-35.489364 21.348238,-51.499996c3.013096,-5.155129 2.857786,-11.570781 -0.401239,-16.573925l-19.997094,-31.363361c-2.046188,-3.21381 -1.58672,-7.41742 1.105498,-10.113248l25.549093,-25.549093c2.695828,-2.692218 6.899438,-3.151687 10.113248,-1.105498l31.363361,19.988925c5.003144,3.259026 11.418796,3.414335 16.573925,0.401239c16.010632,-9.635446 33.367278,-16.830589 51.499996,-21.348238c5.83431,-1.543689 10.302659,-6.240204 11.553682,-12.144048l8.074184,-36.194629c0.838765,-3.718266 4.132082,-6.366314 7.943097,-6.387288l36.031759,0c3.808165,0.000855 7.106232,2.645226 7.934548,6.362723l8.082733,36.219194c1.248174,5.906978 5.717472,10.607198 11.553682,12.152217c18.132718,4.517743 35.489364,11.712886 51.499996,21.348238c5.155129,3.013096 11.570781,2.857786 16.573925,-0.401239l31.281289,-19.997094c3.241072,-2.070696 7.486193,-1.607428 10.203869,1.113667l25.466926,25.467211c2.776569,2.711121 3.26862,6.998893 1.178831,10.268842l-19.98883,31.281479c-3.259121,5.003144 -3.413955,11.418796 -0.400859,16.573925c9.634876,16.010632 16.830399,33.367278 21.348143,51.499996c1.543594,5.83431 6.239919,10.302659 12.143573,11.553682l36.186593,8.074184c3.721724,0.835916 6.373856,4.129233 6.395704,7.943097l0,36.031759c-0.00095,3.808165 -2.645483,7.106232 -6.362457,7.934548l-36.342377,8.106481c-6.03474,1.419157 -10.745314,6.13353 -12.160671,12.16922c-4.920503,19.443585 -12.938642,37.969563 -23.7476,54.864556l-35.866476,-35.866476"/>
   <path id="svg_5" fill="#003399" d="m555.228492,669.264093c32.319534,-60.837552 15.281106,-136.16494 -40.0755,-177.171346c-55.355656,-41.006406 -132.379572,-35.357612 -181.160943,13.286307c-48.781085,48.642684 -54.647693,125.650452 -13.798306,181.121997c40.849672,55.472494 116.128615,72.723701 177.057357,40.5761"/>
   <path id="svg_6" fill="#0047AB" d="m284.830907,603.999989c0.005414,-61.322003 37.976022,-116.235004 95.347375,-137.889966c57.371352,-21.654677 122.156705,-5.527206 162.67961,40.497258c40.523855,46.024749 48.318767,112.329949 19.574672,166.498225c-2.166731,3.901256 -7.058737,5.348909 -11.000838,3.255321c-3.941152,-2.092639 -5.479996,-6.957097 -3.46145,-10.937195c30.417826,-57.257364 14.383446,-128.1506 -37.712139,-166.746149c-52.096535,-38.59517 -124.58751,-33.283687 -170.50112,12.493138c-45.91456,45.776824 -51.443951,118.2507 -13.005136,170.462174c38.437866,52.212424 109.283606,68.459582 166.632161,38.214638c2.589438,-1.439105 5.753569,-1.365962 8.274614,0.189031c2.521045,1.554993 4.005745,4.35056 3.883208,7.309511c-0.123488,2.959901 -1.835215,5.622482 -4.476898,6.962796c-45.694182,24.014523 -100.615732,22.408236 -144.828064,-4.235622c-44.213282,-26.644807 -71.291246,-74.453476 -71.405994,-126.07316z"/>
   <path id="svg_7" fill="white" d="m640.963978,755.000529l-123.078112,-123.078112c10.037636,-30.944073 2.609386,-64.895542 -19.431236,-88.822674c-22.041573,-23.926182 -55.271115,-34.109153 -86.933315,-26.640058c-1.4847,0.29352 -2.687278,1.38116 -3.127084,2.830714c-0.438856,1.448604 -0.041796,3.021645 1.030646,4.089337l49.010297,48.977051c0.9917,0.9898 1.408708,2.416556 1.105688,3.783468l-9.433497,42.74568c-0.345765,1.555943 -1.562592,2.76992 -3.120435,3.111886l-42.671588,9.359404c-1.360263,0.29922 -2.779419,-0.113988 -3.767319,-1.097139l-49.050193,-48.977051c-1.069592,-1.073392 -2.643583,-1.468552 -4.093136,-1.027796c-1.448604,0.440755 -2.536244,1.645234 -2.826914,3.131834c-7.482394,31.637503 2.676829,64.850896 26.576414,86.889619c23.900535,22.038723 57.827306,29.476471 88.755231,19.458784c92.771425,92.779974 12.627074,12.529234 123.241496,123.159804c16.163567,14.856499 41.16694,14.320753 56.678872,-1.213977c15.512882,-15.53378 16.013482,-40.538103 1.134185,-56.680772zm-28.578812,45.529849c-9.044986,0 -16.377295,-7.332309 -16.377295,-16.377295c0,-9.044986 7.332309,-16.378245 16.377295,-16.378245c9.044986,0 16.377295,7.333259 16.377295,16.378245c-0.026597,9.033587 -7.343708,16.350698 -16.377295,16.377295z"/>
   <path id="svg_8" fill="#326DCD" d="m440.417394,432.034117l-16.377295,0c-4.522493,0 -8.189122,-3.66625 -8.189122,-8.188837c0,-4.522588 3.666629,-8.188837 8.189122,-8.188837l16.377295,0c4.522493,0 8.189122,3.66625 8.189122,8.188837c0,4.522588 -3.666629,8.188837 -8.189122,8.188837z"/>
   <path id="svg_9" fill="#326DCD" d="m440.417394,792.344106l-16.377295,0c-4.522493,0 -8.189122,-3.666629 -8.189122,-8.189122c0,-4.522493 3.666629,-8.189122 8.189122,-8.189122l16.377295,0c4.522493,0 8.189122,3.666629 8.189122,8.189122c0,4.522493 -3.666629,8.189122 -8.189122,8.189122z"/>
   <path id="svg_10" fill="#326DCD" d="m299.04793,490.593799c-3.311365,-0.00095 -6.296914,-1.995748 -7.564086,-5.055389c-1.267172,-3.059641 -0.567093,-6.580935 1.774421,-8.922448l11.586929,-11.587879c3.213525,-3.103336 8.321159,-3.058691 11.47959,0.09974c3.158431,3.159381 3.203076,8.266065 0.09974,11.47959c-12.594777,12.594777 -13.06118,13.986387 -17.376594,13.986387z"/>
   <path id="svg_11" fill="#326DCD" d="m252.082966,620.378234c-4.522588,0 -8.188837,-3.666629 -8.188837,-8.189122l0,-16.378245c0,-4.522493 3.66625,-8.188173 8.188837,-8.188173c4.522588,0 8.188837,3.66568 8.188837,8.188173l0,16.378245c0,4.522493 -3.66625,8.189122 -8.188837,8.189122z"/>
   <path id="svg_12" fill="#326DCD" d="m612.388015,620.378234c-4.522493,0 -8.189122,-3.666629 -8.189122,-8.189122l0,-16.378245c0,-4.522493 3.666629,-8.188173 8.189122,-8.188173c4.522493,0 8.189122,3.66568 8.189122,8.188173l0,16.378245c0,4.522493 -3.666629,8.189122 -8.189122,8.189122z"/>
   <path id="svg_13" fill="#326DCD" d="m310.637709,745.370403c-2.171481,-0.00095 -4.25367,-0.863463 -5.788715,-2.399458l-11.587879,-11.586929c-3.103336,-3.213525 -3.058691,-8.321159 0.09974,-11.47959c3.159381,-3.158431 8.266065,-3.203076 11.47959,-0.09974l11.586929,11.586929c2.341513,2.342463 3.041593,5.863757 1.774421,8.923398c-1.267172,3.059641 -4.25177,5.054439 -7.564086,5.055389z"/>
   <path id="svg_14" fill="#326DCD" d="m565.414312,490.593799c-2.171481,0 -4.25367,-0.863463 -5.789665,-2.399458l-11.586929,-11.586929c-3.103336,-3.213525 -3.058691,-8.320209 0.09974,-11.47959c3.158431,-3.158431 8.266065,-3.203076 11.47959,-0.09974l11.586929,11.587879c2.341513,2.341513 3.041593,5.862808 1.774421,8.922448c-1.267172,3.059641 -4.25272,5.054439 -7.564086,5.055389z"/>
   <path id="svg_15" fill="#CDCDCD" d="m579.628676,759.588566c-2.17243,0 -4.25462,-0.863463 -5.789665,-2.399458l-90.077497,-90.076547c-3.103336,-3.213525 -3.058691,-8.321159 0.09974,-11.47959c3.158431,-3.158431 8.266065,-3.203076 11.47959,-0.09974l90.076547,90.077497c2.341513,2.341513 3.041593,5.862808 1.774421,8.922448c-1.267172,3.059641 -4.25177,5.054439 -7.563136,5.055389z"/>
   <path id="svg_16" fill="white" d="m768.926496,498.085692z"/>
   <text stroke="null" transform="matrix(5.832931041717528,0,0,6.223975339513856,-3497.1087837953232,-2365.899554198345) " xml:space="preserve" text-anchor="start" font-family="Helvetica, Arial, sans-serif" font-size="24" id="svg_19" y="475.321331" x="723.771436" fill-opacity="null" stroke-opacity="null" stroke-width="0" fill="#ffffff">ITS SERVIS</text>
   <text stroke="null" transform="matrix(2.4527907630918833,0,0,4.057652849336193,-1114.9823759870549,-2237.54970667174) " xml:space="preserve" text-anchor="start" font-family="Helvetica, Arial, sans-serif" font-size="24" id="svg_22" y="725.274854" x="751.29204" fill-opacity="null" stroke-opacity="null" stroke-width="0" fill="#ffffff">POPRAVKA I SERVISIRANJE</text>
  </g>
 </g>
</svg>